<?xml version="1.0" encoding="UTF-8"?>
<svg width="15px" height="13px" viewBox="0 0 15 13" version="1.1" xmlns="http://www.w3.org/2000/svg" xmlns:xlink="http://www.w3.org/1999/xlink">
    <title>6.Icons/20.Down</title>
    <g id="Teacher" stroke="none" stroke-width="1" fill="none" fill-rule="evenodd" fill-opacity="0.7">
        <g id="Sign-In-1" transform="translate(-32.000000, -310.000000)" fill="#293041">
            <g id="Group-3" transform="translate(16.000000, 295.000000)">
                <g id="6.Icons/20.Down" transform="translate(16.000000, 14.000000)">
                    <path d="M13.1388206,1.32352941 C14.1669913,1.32352941 15,2.15653807 15,3.18470877 L15,3.18470877 L15,11.9562075 C15,12.9843782 14.1669913,13.8173869 13.1388206,13.8173869 L13.1388206,13.8173869 L1.86117936,13.8173869 C0.83300866,13.8173869 0,12.9843782 0,11.9562075 L0,11.9562075 L0,3.18470877 C0,2.15653807 0.83300866,1.32352941 1.86117936,1.32352941 L1.86117936,1.32352941 Z M13.783,5.96552941 L8.80507104,8.26411665 C8.03249483,8.62096982 7.1500865,8.64476003 6.3623821,8.33555614 L6.19511239,8.26420134 L1.216,5.96552941 L1.21621622,11.9562075 C1.21621622,12.2802739 1.4546378,12.5481561 1.76581064,12.5941837 L1.86117936,12.6011707 L13.1388206,12.6011707 C13.4952937,12.6011707 13.7837838,12.3126806 13.7837838,11.9562075 L13.7837838,11.9562075 L13.783,5.96552941 Z M13.1388206,2.53974563 L1.86117936,2.53974563 C1.50470633,2.53974563 1.21621622,2.82823574 1.21621622,3.18470877 L1.21621622,3.18470877 L1.216,4.62652941 L6.70472606,7.15990256 C7.15915994,7.36960842 7.67535044,7.39057901 8.14177946,7.22281907 L8.29525981,7.15990908 L13.783,4.62652941 L13.7837838,3.18470877 C13.7837838,2.86064238 13.5453622,2.59276022 13.2341894,2.54673261 L13.1388206,2.53974563 Z" id="Combined-Shape"></path>
                </g>
            </g>
        </g>
    </g>
</svg>