<?xml version="1.0" encoding="UTF-8"?>
<svg width="15px" height="15px" viewBox="0 0 15 15" version="1.1" xmlns="http://www.w3.org/2000/svg" xmlns:xlink="http://www.w3.org/1999/xlink">
    <title>Group 2</title>
    <g id="Teacher" stroke="none" stroke-width="1" fill="none" fill-rule="evenodd" fill-opacity="0.7">
        <g id="Teacher-(List)" transform="translate(-328.000000, -675.000000)" fill="#293041">
            <g id="Tiles/52px" transform="translate(16.000000, 657.000000)">
                <g id="6.Icons/20.Down" transform="translate(312.000000, 18.000000)">
                    <path d="M1.87941176,11.1265018 L7.5,5.92061942 L13.1823529,11.1882665 L13.1823529,11.1882665 C13.3885145,11.3724215 13.6559302,11.4730957 13.9323529,11.4706194 C14.5000452,11.4924835 14.9780082,11.0500714 15,10.4823841 C14.9987432,10.2189463 14.8904552,9.96733597 14.7,9.7853253 L14.7,9.7853253 L8.26764706,3.82944295 L8.26764706,3.82944295 C8.05969955,3.63470871 7.78488426,3.52730963 7.5,3.52944295 L7.49117647,3.52944295 C7.20629221,3.52730963 6.93147692,3.63470871 6.72352941,3.82944295 L6.72352941,3.82944295 L0.291176471,9.7853253 L0.3,9.79414883 C0.10871866,9.97191316 3.14340709e-05,10.2212544 1.04083409e-16,10.4823841 C0.021991817,11.0500714 0.49995482,11.4924835 1.06764706,11.4706194 C1.37447976,11.4746239 1.6689357,11.3498002 1.87941176,11.1265018 L1.87941176,11.1265018 Z" id="Right" transform="translate(7.500000, 7.500404) scale(1, -1) translate(-7.500000, -7.500404) "></path>
                </g>
            </g>
        </g>
    </g>
</svg>