<svg width="155" height="157" viewBox="0 0 155 157" fill="none" xmlns="http://www.w3.org/2000/svg">
<path d="M55.3858 78.0628L44.2509 89.3139L66.1731 111.352L77.3084 100.101L55.3858 78.0628Z" fill="#E44225"/>
<path d="M145.508 9.27918C139.36 3.13164 131.357 -0.00012207 123.47 -0.00012207C115.582 -0.00012207 107.463 3.13164 101.431 9.27918L77.4212 33.4054L53.4111 9.27918C47.2635 3.13164 39.2601 -0.00012207 31.3727 -0.00012207C23.4853 -0.00012207 15.3659 3.13164 9.33438 9.27918C-2.8447 21.5742 -2.8447 41.5248 9.33438 53.8198L33.3445 77.9459L44.5956 66.6948L20.4697 42.6847C17.5699 39.7849 15.83 35.8411 15.83 31.5494C15.83 27.4897 17.3379 23.5461 20.4697 20.4143C23.3694 17.5145 27.3131 15.7747 31.4888 15.7747C35.5485 15.7747 39.4922 17.2825 42.508 20.4143L77.6531 55.9076L112.799 20.4143C115.698 17.5145 119.642 15.7747 123.818 15.7747C127.877 15.7747 131.821 17.2825 134.837 20.4143C137.737 23.3141 139.476 27.2578 139.476 31.5494C139.476 35.6091 137.969 39.5529 134.837 42.6847L77.4212 100.1L88.6723 111.467L145.74 53.9358C157.687 41.5247 157.687 21.6902 145.508 9.27918Z" fill="#E44225"/>
<path d="M9.2213 146.73C15.3688 152.878 23.3722 156.01 31.2596 156.01C39.147 156.01 47.2664 152.878 53.298 146.73L77.3084 122.604L101.318 146.73C107.466 152.878 115.469 156.01 123.357 156.01C131.244 156.01 139.364 152.878 145.395 146.73C157.574 134.435 157.574 114.485 145.395 102.19L121.385 78.0635L110.366 89.3146L134.376 113.441C137.276 116.341 139.016 120.284 139.016 124.576C139.016 128.636 137.508 132.579 134.376 135.711C131.476 138.611 127.533 140.351 123.357 140.351C119.297 140.351 115.353 138.843 112.338 135.711L77.3084 100.102L42.2788 135.595C39.379 138.495 35.4353 140.235 31.2596 140.235C27.1999 140.235 23.2562 138.727 20.2405 135.595C17.3407 132.695 15.6008 128.752 15.6008 124.46C15.6008 120.4 17.1087 116.456 20.2405 113.325L77.3084 55.7931L66.2892 44.7739L9.2213 102.19C-3.07377 114.485 -3.07377 134.551 9.2213 146.73Z" fill="#F48023"/>
<path d="M88.5556 44.7739L77.4203 56.0252L99.3428 78.0635L110.478 66.8123L88.5556 44.7739Z" fill="#F48023"/>
</svg>
