<?xml version="1.0" encoding="UTF-8"?>
<svg width="13px" height="15px" viewBox="0 0 13 15" version="1.1" xmlns="http://www.w3.org/2000/svg" xmlns:xlink="http://www.w3.org/1999/xlink">
    <title>6.Icons/20.Down</title>
    <g id="Teacher" stroke="none" stroke-width="1" fill="none" fill-rule="evenodd" fill-opacity="0.7">
        <g id="Sign-In-4" transform="translate(-33.000000, -336.000000)" fill="#293041">
            <g id="Group-3" transform="translate(16.000000, 322.000000)">
                <g id="6.Icons/20.Down" transform="translate(16.000000, 14.000000)">
                    <path d="M7.48222286,0 C9.49055563,0 11.1296481,1.58330545 11.2191592,3.56957522 L11.2230091,3.74078624 L11.2222941,5.012 L11.8679723,5.01228501 C12.8471824,5.01228501 13.6493749,5.76784842 13.7235538,6.72797935 L13.7291516,6.87346437 L13.7291516,13.1388206 C13.7291516,14.1669913 12.896143,15 11.8679723,15 L11.8679723,15 L3.09647348,15 C2.06830278,15 1.23529412,14.1669913 1.23529412,13.1388206 L1.23529412,13.1388206 L1.23529412,6.87346437 C1.23529412,5.84529367 2.06830278,5.01228501 3.09647348,5.01228501 L3.09647348,5.01228501 L3.74129412,5.012 L3.74143662,3.74078624 C3.74143662,1.67507254 5.41650917,0 7.48222286,0 Z M11.8679723,6.22850123 L3.09647348,6.22850123 C2.74000045,6.22850123 2.45151033,6.51699134 2.45151033,6.87346437 L2.45151033,6.87346437 L2.45151033,13.1388206 C2.45151033,13.4952937 2.74000045,13.7837838 3.09647348,13.7837838 L3.09647348,13.7837838 L11.8679723,13.7837838 C12.2244453,13.7837838 12.5129354,13.4952937 12.5129354,13.1388206 L12.5129354,13.1388206 L12.5129354,6.87346437 C12.5129354,6.51699134 12.2244453,6.22850123 11.8679723,6.22850123 L11.8679723,6.22850123 Z M7.48222286,1.21621622 C6.13627635,1.21621622 5.03593535,2.27014527 4.96165018,3.59755306 L4.95765284,3.74078624 L4.95729412,5.012 L10.0062941,5.012 L10.0067929,3.74078624 C10.0067929,2.34677021 8.8762389,1.21621622 7.48222286,1.21621622 Z" id="Combined-Shape"></path>
                </g>
            </g>
        </g>
    </g>
</svg>