<svg xmlns="http://www.w3.org/2000/svg" viewBox="0 0 15 14.31"><title>star</title><g id="Слой_2" data-name="Слой 2"><g id="Слой_1-2" data-name="Слой 1"><path d="M14.94,5.77a3.74,3.74,0,0,1-.27.31l-3.07,3a.23.23,0,0,0-.08.23q.39,2.23.77,4.47a.43.43,0,0,1-.17.45.45.45,0,0,1-.51,0L8.42,12.56l-.79-.42a.26.26,0,0,0-.28,0L3.45,14.2a.86.86,0,0,1-.24.1.44.44,0,0,1-.5-.52c.09-.57.19-1.13.29-1.7q.24-1.4.49-2.8a.22.22,0,0,0-.09-.21L.25,6,.13,5.88A.43.43,0,0,1,0,5.42.43.43,0,0,1,.4,5.13L3,4.75l1.85-.27a.32.32,0,0,0,.24-.18l2-4A.51.51,0,0,1,7.4,0a.45.45,0,0,1,.51.28l.64,1.3L9.9,4.32a.31.31,0,0,0,.23.17L13.4,5l1.09.15A.59.59,0,0,1,15,5.4.41.41,0,0,1,14.94,5.77ZM7.56,1.56a.07.07,0,0,0-.12,0l0,.06L5.75,5a.61.61,0,0,1-.46.34l-3.06.44-.66.1,0,.16h0L4.21,8.63a.56.56,0,0,1,.18.54q-.26,1.48-.51,3l-.13.79a.07.07,0,0,0,.1.07l.06,0,3.29-1.73a.6.6,0,0,1,.62,0L11.11,13l.15.07a.23.23,0,0,0,0,0c-.22-1.26-.43-2.53-.65-3.79a.61.61,0,0,1,.19-.6L13.49,6l.11-.11,0,0L9.73,5.31A.59.59,0,0,1,9.24,5C8.69,3.84,8.14,2.72,7.58,1.6Z"/></g></g></svg>