<?xml version="1.0" encoding="UTF-8"?>
<svg width="17px" height="17px" viewBox="0 0 17 17" version="1.1" xmlns="http://www.w3.org/2000/svg" xmlns:xlink="http://www.w3.org/1999/xlink">
    <title>7.Icons/1.Line/2.Arrow Left</title>
    <g id="Symbols" stroke="none" stroke-width="1" fill="none" fill-rule="evenodd">
        <g id="7.Icons/1.Line/2.Arrow-Left" fill="#FFFFFF">
            <path d="M0.84999692,9.31663895 L14.0929489,9.31663895 L9.59646523,13.8131227 C9.26316261,14.1464253 9.26316262,14.6868156 9.59646525,15.0201183 C9.92976788,15.3534209 10.4701582,15.3534209 10.8034609,15.0201183 L16.7449393,9.07013984 C16.9079973,8.91169166 17,8.69400459 17,8.46664203 C17,8.23927946 16.9079973,8.02159239 16.7449393,7.86314421 L10.8034609,1.91316577 C10.6409486,1.75726326 10.4251514,1.66912076 10.199963,1.66666667 C9.97446079,1.66755303 9.75810404,1.7559241 9.59646523,1.91316577 C9.26498524,2.24722131 9.26498524,2.78610586 9.59646523,3.1201614 L14.0929489,7.61664511 L0.84999692,7.61664511 C0.380556584,7.61664511 0,7.99720169 0,8.46664203 C0,8.93608236 0.380556584,9.31663895 0.84999692,9.31663895 Z" id="Arrow-Left" transform="translate(8.500000, 8.468381) scale(-1, 1) translate(-8.500000, -8.468381) "></path>
        </g>
    </g>
</svg>